# xmcd CD database file
#
# Track frame offsets:
#	150
#	25697
#	42012
#	72715
#	85785
#	100710
#	124315
#	143895
#	163457
#	179647
#	194550
#	215667
#	235732
#	252920
#	270770
#	282367
#	295617
#	315664
#	331427
#
# Disc length: 4647 seconds
#
# Revision: 4
# Processed by: cddbd v1.5.2PL0 Copyright (c) Steve Scherf et al.
# Submitted via: CDex 2.21
#
DISCID=21122513
DTITLE=Hans Theessink - Unknown CD for MusicBrainz and FreeDB
DYEAR=1998
DGENRE=Blues
TTITLE0=Johnny and The Devil
TTITLE1=Baby Wants To Boogie
TTITLE2=Living In The Fast Lane
TTITLE3=Darkest Hour
TTITLE4=Nobodys Fault But Mine
TTITLE5=Mississippi
TTITLE6=Travelling Man
TTITLE7=Dough Roller Blues
TTITLE8=Rivers Invitation
TTITLE9=Titanic
TTITLE10=Stones In My Passway
TTITLE11=When Things Go Wrong
TTITLE12=Down Where The Drunkards Roll
TTITLE13=Sidewalk Hobo
TTITLE14=Cajun Boogie
TTITLE15=Rain
TTITLE16=Nashville Picking
TTITLE17=Blue Blood
TTITLE18=Lazy
EXTD=YEAR: 1998
EXTT0=
EXTT1=
EXTT2=
EXTT3=
EXTT4=
EXTT5=
EXTT6=
EXTT7=
EXTT8=
EXTT9=
EXTT10=
EXTT11=
EXTT12=
EXTT13=
EXTT14=
EXTT15=
EXTT16=
EXTT17=
EXTT18=
PLAYORDER=
